<mxfile host="app.diagrams.net" modified="2024-01-02T14:58:41.433Z" agent="Mozilla/5.0 (Windows NT 10.0; Win64; x64) AppleWebKit/537.36 (KHTML, like Gecko) Chrome/120.0.0.0 Safari/537.36" version="22.1.16" etag="sVtHrchJqFyJWoo_ZbpG" type="device">
  <diagram id="RybvVvzTTOViB9O7qVaw" name="第1頁">
    <mxGraphModel dx="1334" dy="940" grid="0" gridSize="10" guides="1" tooltips="1" connect="1" arrows="1" fold="1" page="0" pageScale="1" pageWidth="827" pageHeight="1169" math="0" shadow="0">
      <root>
        <mxCell id="0" />
        <mxCell id="1" parent="0" />
        <mxCell id="JQ-ArIc0KbyQgQhtLHyV-1" value="用戶" style="rounded=1;whiteSpace=wrap;html=1;fontSize=16;" parent="1" vertex="1">
          <mxGeometry x="226" y="197" width="105" height="33" as="geometry" />
        </mxCell>
        <mxCell id="JQ-ArIc0KbyQgQhtLHyV-2" value="用戶帳號" style="ellipse;whiteSpace=wrap;html=1;fontSize=16;rotation=0;" parent="1" vertex="1">
          <mxGeometry x="-52" y="89" width="82" height="63" as="geometry" />
        </mxCell>
        <mxCell id="JQ-ArIc0KbyQgQhtLHyV-3" value="密碼" style="ellipse;whiteSpace=wrap;html=1;fontSize=16;rotation=0;" parent="1" vertex="1">
          <mxGeometry x="5" y="35" width="82" height="63" as="geometry" />
        </mxCell>
        <mxCell id="JQ-ArIc0KbyQgQhtLHyV-4" value="性別" style="ellipse;whiteSpace=wrap;html=1;fontSize=16;rotation=0;" parent="1" vertex="1">
          <mxGeometry x="245" y="-60" width="82" height="63" as="geometry" />
        </mxCell>
        <mxCell id="JQ-ArIc0KbyQgQhtLHyV-5" value="頭像" style="ellipse;whiteSpace=wrap;html=1;fontSize=16;rotation=0;" parent="1" vertex="1">
          <mxGeometry x="163" y="-35" width="82" height="63" as="geometry" />
        </mxCell>
        <mxCell id="JQ-ArIc0KbyQgQhtLHyV-6" value="用戶&lt;br style=&quot;border-color: var(--border-color);&quot;&gt;姓名" style="ellipse;whiteSpace=wrap;html=1;fontSize=16;rotation=0;" parent="1" vertex="1">
          <mxGeometry x="81" y="-6" width="82" height="63" as="geometry" />
        </mxCell>
        <mxCell id="JQ-ArIc0KbyQgQhtLHyV-7" value="手機" style="ellipse;whiteSpace=wrap;html=1;fontSize=16;rotation=1;" parent="1" vertex="1">
          <mxGeometry x="418" y="-6" width="82" height="63" as="geometry" />
        </mxCell>
        <mxCell id="JQ-ArIc0KbyQgQhtLHyV-8" value="年齡" style="ellipse;whiteSpace=wrap;html=1;fontSize=16;rotation=3;" parent="1" vertex="1">
          <mxGeometry x="336" y="-35" width="82" height="63" as="geometry" />
        </mxCell>
        <mxCell id="JQ-ArIc0KbyQgQhtLHyV-9" value="地址" style="ellipse;whiteSpace=wrap;html=1;fontSize=16;rotation=0;" parent="1" vertex="1">
          <mxGeometry x="500" y="35" width="82" height="63" as="geometry" />
        </mxCell>
        <mxCell id="JQ-ArIc0KbyQgQhtLHyV-10" value="餘額" style="ellipse;whiteSpace=wrap;html=1;fontSize=16;rotation=0;" parent="1" vertex="1">
          <mxGeometry x="560" y="89" width="82" height="63" as="geometry" />
        </mxCell>
        <mxCell id="JQ-ArIc0KbyQgQhtLHyV-22" value="" style="endArrow=none;html=1;rounded=0;fontSize=12;startSize=8;endSize=8;curved=1;exitX=0.5;exitY=0;exitDx=0;exitDy=0;" parent="1" source="JQ-ArIc0KbyQgQhtLHyV-1" target="JQ-ArIc0KbyQgQhtLHyV-2" edge="1">
          <mxGeometry width="50" height="50" relative="1" as="geometry">
            <mxPoint x="261" y="137" as="sourcePoint" />
            <mxPoint x="311" y="87" as="targetPoint" />
          </mxGeometry>
        </mxCell>
        <mxCell id="JQ-ArIc0KbyQgQhtLHyV-23" value="" style="endArrow=none;html=1;rounded=0;fontSize=12;startSize=8;endSize=8;curved=1;entryX=0.5;entryY=0;entryDx=0;entryDy=0;" parent="1" source="JQ-ArIc0KbyQgQhtLHyV-3" target="JQ-ArIc0KbyQgQhtLHyV-1" edge="1">
          <mxGeometry width="50" height="50" relative="1" as="geometry">
            <mxPoint x="261" y="137" as="sourcePoint" />
            <mxPoint x="311" y="87" as="targetPoint" />
          </mxGeometry>
        </mxCell>
        <mxCell id="JQ-ArIc0KbyQgQhtLHyV-24" value="" style="endArrow=none;html=1;rounded=0;fontSize=12;startSize=8;endSize=8;curved=1;entryX=0.5;entryY=0;entryDx=0;entryDy=0;" parent="1" source="JQ-ArIc0KbyQgQhtLHyV-6" target="JQ-ArIc0KbyQgQhtLHyV-1" edge="1">
          <mxGeometry width="50" height="50" relative="1" as="geometry">
            <mxPoint x="261" y="137" as="sourcePoint" />
            <mxPoint x="307" y="87" as="targetPoint" />
          </mxGeometry>
        </mxCell>
        <mxCell id="JQ-ArIc0KbyQgQhtLHyV-25" value="" style="endArrow=none;html=1;rounded=0;fontSize=12;startSize=8;endSize=8;curved=1;entryX=0.5;entryY=0;entryDx=0;entryDy=0;" parent="1" source="JQ-ArIc0KbyQgQhtLHyV-5" target="JQ-ArIc0KbyQgQhtLHyV-1" edge="1">
          <mxGeometry width="50" height="50" relative="1" as="geometry">
            <mxPoint x="261" y="137" as="sourcePoint" />
            <mxPoint x="311" y="87" as="targetPoint" />
          </mxGeometry>
        </mxCell>
        <mxCell id="JQ-ArIc0KbyQgQhtLHyV-26" value="" style="endArrow=none;html=1;rounded=0;fontSize=12;startSize=8;endSize=8;curved=1;exitX=0.5;exitY=0;exitDx=0;exitDy=0;" parent="1" source="JQ-ArIc0KbyQgQhtLHyV-1" target="JQ-ArIc0KbyQgQhtLHyV-4" edge="1">
          <mxGeometry width="50" height="50" relative="1" as="geometry">
            <mxPoint x="261" y="137" as="sourcePoint" />
            <mxPoint x="311" y="87" as="targetPoint" />
          </mxGeometry>
        </mxCell>
        <mxCell id="JQ-ArIc0KbyQgQhtLHyV-27" value="" style="endArrow=none;html=1;rounded=0;fontSize=12;startSize=8;endSize=8;curved=1;exitX=0.5;exitY=0;exitDx=0;exitDy=0;" parent="1" source="JQ-ArIc0KbyQgQhtLHyV-1" target="JQ-ArIc0KbyQgQhtLHyV-8" edge="1">
          <mxGeometry width="50" height="50" relative="1" as="geometry">
            <mxPoint x="261" y="137" as="sourcePoint" />
            <mxPoint x="311" y="87" as="targetPoint" />
          </mxGeometry>
        </mxCell>
        <mxCell id="JQ-ArIc0KbyQgQhtLHyV-28" value="" style="endArrow=none;html=1;rounded=0;fontSize=12;startSize=8;endSize=8;curved=1;exitX=0.5;exitY=0;exitDx=0;exitDy=0;" parent="1" source="JQ-ArIc0KbyQgQhtLHyV-1" target="JQ-ArIc0KbyQgQhtLHyV-7" edge="1">
          <mxGeometry width="50" height="50" relative="1" as="geometry">
            <mxPoint x="261" y="137" as="sourcePoint" />
            <mxPoint x="311" y="87" as="targetPoint" />
          </mxGeometry>
        </mxCell>
        <mxCell id="JQ-ArIc0KbyQgQhtLHyV-29" value="" style="endArrow=none;html=1;rounded=0;fontSize=12;startSize=8;endSize=8;curved=1;exitX=0.5;exitY=0;exitDx=0;exitDy=0;" parent="1" source="JQ-ArIc0KbyQgQhtLHyV-1" target="JQ-ArIc0KbyQgQhtLHyV-9" edge="1">
          <mxGeometry width="50" height="50" relative="1" as="geometry">
            <mxPoint x="261" y="137" as="sourcePoint" />
            <mxPoint x="311" y="87" as="targetPoint" />
          </mxGeometry>
        </mxCell>
        <mxCell id="JQ-ArIc0KbyQgQhtLHyV-30" value="" style="endArrow=none;html=1;rounded=0;fontSize=12;startSize=8;endSize=8;curved=1;exitX=0.5;exitY=0;exitDx=0;exitDy=0;" parent="1" source="JQ-ArIc0KbyQgQhtLHyV-1" target="JQ-ArIc0KbyQgQhtLHyV-10" edge="1">
          <mxGeometry width="50" height="50" relative="1" as="geometry">
            <mxPoint x="261" y="137" as="sourcePoint" />
            <mxPoint x="311" y="87" as="targetPoint" />
          </mxGeometry>
        </mxCell>
      </root>
    </mxGraphModel>
  </diagram>
</mxfile>
